<?xml version="1.0" encoding="UTF-8"?>
<!DOCTYPE svg PUBLIC "-//W3C//DTD SVG 1.1//EN" "http://www.w3.org/Graphics/SVG/1.1/DTD/svg11.dtd">
<!-- Creator: CorelDRAW X7 -->
<svg xmlns="http://www.w3.org/2000/svg" xml:space="preserve" width="210mm" height="297mm" version="1.1" style="shape-rendering:geometricPrecision; text-rendering:geometricPrecision; image-rendering:optimizeQuality; fill-rule:evenodd; clip-rule:evenodd"
viewBox="0 0 21000 29700"
 xmlns:xlink="http://www.w3.org/1999/xlink">
 <defs>
  <style type="text/css">
   <![CDATA[
    .fil0 {fill:white}
    .fil2 {fill:#1F1F1F}
    .fil3 {fill:#4A312C}
    .fil6 {fill:#5F4A37}
    .fil5 {fill:#D5A67B}
    .fil4 {fill:#E6E6E6}
    .fil1 {fill:#ECB889}
    .fil7 {fill:#FE4F6D}
    .fil8 {fill:white}
   ]]>
  </style>
 </defs>
 <g id="Camada_x0020_1">
  <metadata id="CorelCorpID_0Corel-Layer"/>
  <path class="fil0" d="M17876 16412c-446,-805 -3347,1158 -5365,1409 -25,222 -339,773 -456,955 -381,593 -899,1069 -1540,1430 -3642,1173 -2619,-6933 -7008,1764 94,207 460,526 676,757 3644,3586 9594,3544 13316,-758 332,-1319 601,-4605 377,-5557z"/>
  <path class="fil1" d="M6155 11236c-264,43 -483,292 -583,494 -132,268 -90,659 -90,994 0,342 -33,690 127,958 122,205 342,396 651,445 83,458 130,766 295,1168 278,680 686,1254 1227,1705 167,139 674,519 891,572 388,265 1288,694 1819,694 531,0 1452,-429 1841,-694 430,-104 1288,-885 1593,-1323 193,-277 374,-586 519,-939 170,-411 217,-717 301,-1183 308,-49 529,-240 651,-445 163,-274 127,-651 127,-1003 0,-361 44,-731 -118,-1011 -240,-414 -562,-404 -644,-481 -129,-28 -147,-292 -186,-494 -101,-523 -252,-1486 -523,-1890 -52,-79 -87,-106 -152,-178 -250,-275 -362,-307 -682,-684 -200,-235 -219,-362 -273,-415 -170,220 -732,440 -1085,539 -484,136 -930,140 -1468,128 -645,-14 -1955,-309 -2328,-865 -315,127 -1096,1179 -1275,1621 -202,500 -358,1226 -396,1797 -16,248 76,440 -62,598 -122,0 -118,-39 -177,-108z"/>
  <path class="fil2" d="M7538 19071l410 -44c116,-46 575,-31 724,-13l1 -1442c-217,-53 -724,-433 -891,-572 -541,-451 -949,-1025 -1227,-1705 -165,-402 -212,-710 -295,-1168 -309,-49 -529,-240 -651,-445 -160,-268 -127,-616 -127,-958 0,-335 -42,-726 90,-994 100,-202 319,-451 583,-494 -208,-313 -350,-1131 -369,-1576 -26,-584 49,-1198 210,-1723 -227,68 -912,583 -1147,770l-1311 1286c-100,115 -193,244 -290,371 -690,903 -1332,2164 -1639,3552 -628,2847 42,5631 1760,7860 51,66 104,122 138,194l40 -41c3,-4 7,-10 10,-14l292 -481c370,-549 744,-922 1264,-1335 503,-400 1584,-952 2425,-1028z"/>
  <path class="fil2" d="M14762 11187c82,77 404,67 644,481 162,280 118,650 118,1011 0,352 36,729 -127,1003 -122,205 -343,396 -651,445 -84,466 -131,772 -301,1183 -145,353 -326,662 -519,939 -305,438 -1163,1219 -1593,1323l1 1442 750 10c90,9 176,16 260,26l242 53c252,-27 1078,291 1290,387 1011,460 1881,1249 2446,2198 33,56 52,92 80,141l97 140 536 -743c174,-252 321,-515 482,-798 1024,-1810 1362,-4309 907,-6386 -329,-1502 -1009,-2900 -1848,-3915l-596 -681 -571 -529c-197,-185 -1002,-789 -1234,-889 2,133 52,281 74,425 107,696 -11,2316 -487,2734z"/>
  <path class="fil3" d="M5996 7937c-161,525 -236,1139 -210,1723 19,445 161,1263 369,1576 59,69 55,108 177,108 138,-158 46,-350 62,-598 38,-571 194,-1297 396,-1797 179,-442 960,-1494 1275,-1621 373,556 1683,851 2328,865 538,12 984,8 1468,-128 353,-99 915,-319 1085,-539 54,53 73,180 273,415 320,377 432,409 682,684 65,72 100,99 152,178 271,404 422,1367 523,1890 39,202 57,466 186,494 476,-418 594,-2038 487,-2734 -22,-144 -72,-292 -74,-425 -48,-83 -96,-283 -143,-398 -275,-675 -605,-880 -669,-1020 672,-481 549,-2558 -896,-2174 -415,110 -801,456 -1585,355 -551,-71 -1039,-286 -1599,-370 -1478,-222 -2654,558 -3199,1629 -84,166 -78,186 -88,391 -8,186 -111,186 -241,273 -347,233 -713,838 -759,1223z"/>
  <path class="fil1" d="M8672 19014c-149,-18 -608,-33 -724,13 99,-3 9,104 108,426 448,1446 3575,1855 4758,394 175,-216 269,-460 270,-823l-750 -10c-70,-84 -17,-570 -38,-802 -984,532 -2604,531 -3586,0l-4 618c2,91 6,136 -34,184z"/>
  <path class="fil4" d="M7538 19071c-146,1957 3089,2907 5063,1669 503,-315 941,-862 948,-1489 1,-112 -26,-104 37,-148l-242 -53c-84,-10 -170,-17 -260,-26 -1,363 -95,607 -270,823 -1183,1461 -4310,1052 -4758,-394 -99,-322 -9,-429 -108,-426l-410 44z"/>
  <path class="fil5" d="M8672 19195c40,-55 36,-105 34,-208l4 -696c982,598 2602,599 3586,0 21,262 -32,810 38,904l-1 -1624c-389,298 -1299,432 -1830,432 -531,0 -1442,-134 -1830,-432l-1 1624z"/>
  <path class="fil3" d="M9545 16073c347,-392 880,-159 958,-159 87,0 596,-234 958,158 266,-186 740,-1069 287,-1084l-49 79c-6,125 -78,204 -155,248 -160,91 -855,51 -1063,51 -539,0 -1099,123 -1114,-378 -148,1 -291,-1 -299,155 -4,83 59,296 88,371 81,221 254,472 389,559z"/>
  <path class="fil5" d="M11424 13663l-1838 -7c38,832 1580,803 1805,187 26,-70 25,-103 33,-180z"/>
  <path class="fil6" d="M7120 11239c78,-24 116,-75 217,-114 83,-32 173,-61 268,-83 390,-90 794,-161 1195,-176 147,-5 547,39 626,7 -30,-258 -853,-513 -1313,-426 -447,85 -983,352 -993,792z"/>
  <path class="fil6" d="M11649 10853c58,73 61,33 239,17 452,-43 1122,63 1562,166 338,80 305,114 512,204 -42,-619 -985,-961 -1768,-728 -206,61 -485,208 -545,341z"/>
  <path class="fil7" d="M9545 16073l177 153c68,45 141,81 216,114 350,152 752,153 1113,6 103,-42 287,-143 368,-225 32,-33 20,-19 42,-49 -362,-392 -871,-158 -958,-158 -78,0 -611,-233 -958,159z"/>
  <path class="fil8" d="M11699 15067l3 -79 -2335 0c15,501 575,378 1114,378 208,0 903,40 1063,-51 77,-44 149,-123 155,-248z"/>
  <path class="fil6" d="M11881 12412c103,10 283,-140 425,-187 350,-116 725,-86 1038,118 54,35 144,133 186,60 117,-205 -720,-950 -1410,-389 -90,73 -252,234 -239,398z"/>
  <path class="fil6" d="M7471 12412c166,19 374,-321 1001,-242 451,56 582,347 647,233 72,-125 -330,-675 -963,-578 -323,49 -709,318 -685,587z"/>
 </g>
</svg>
