<?xml version="1.0" encoding="UTF-8"?>
<!DOCTYPE svg PUBLIC "-//W3C//DTD SVG 1.1//EN" "http://www.w3.org/Graphics/SVG/1.1/DTD/svg11.dtd">
<!-- Creator: CorelDRAW X7 -->
<svg xmlns="http://www.w3.org/2000/svg" xml:space="preserve" width="210mm" height="297mm" version="1.1" style="shape-rendering:geometricPrecision; text-rendering:geometricPrecision; image-rendering:optimizeQuality; fill-rule:evenodd; clip-rule:evenodd"
viewBox="0 0 21000 29700"
 xmlns:xlink="http://www.w3.org/1999/xlink">
 <defs>
  <style type="text/css">
   <![CDATA[
    .fil0 {fill:white}
    .fil2 {fill:#1F1F1F}
    .fil3 {fill:#4A312C}
    .fil6 {fill:#5F4A37}
    .fil5 {fill:#D5A67B}
    .fil4 {fill:#E6E6E6}
    .fil1 {fill:#ECB889}
    .fil7 {fill:#FE4F6D}
    .fil8 {fill:white}
   ]]>
  </style>
 </defs>
 <g id="Camada_x0020_1">
  <metadata id="CorelCorpID_0Corel-Layer"/>
  <ellipse class="fil0" cx="10512" cy="22480" rx="6650" ry="2608"/>
  <path class="fil1" d="M6413 13055c-248,40 -455,270 -548,457 -125,248 -85,610 -85,919 0,317 -31,639 119,887 115,190 323,366 612,411 79,424 123,709 278,1081 262,629 645,1160 1154,1577 157,129 635,481 839,529 365,245 1211,642 1710,642 500,0 1366,-397 1732,-642 405,-96 1212,-819 1499,-1224 181,-256 351,-542 488,-868 159,-381 204,-663 283,-1095 290,-45 498,-221 613,-411 153,-254 119,-603 119,-928 0,-334 41,-676 -112,-936 -225,-382 -528,-373 -605,-444 -122,-26 -138,-270 -175,-458 -95,-483 -237,-1374 -492,-1748 -49,-73 -82,-98 -143,-164 -235,-255 -341,-285 -642,-633 -187,-218 -205,-335 -256,-384 -160,203 -689,407 -1020,498 -456,126 -875,130 -1381,119 -607,-13 -1839,-286 -2191,-800 -296,117 -1030,1090 -1198,1499 -191,463 -337,1134 -373,1663 -15,229 71,407 -58,553 -115,0 -112,-36 -167,-100z"/>
  <path class="fil2" d="M7714 20303l386 -40c109,-43 540,-30 680,-12l2 -1335c-204,-48 -682,-400 -839,-529 -509,-417 -892,-948 -1154,-1577 -155,-372 -199,-657 -278,-1081 -289,-45 -497,-221 -612,-411 -150,-248 -119,-570 -119,-887 0,-309 -40,-671 85,-919 93,-187 300,-417 548,-457 -196,-290 -329,-1046 -347,-1458 -25,-540 46,-1108 198,-1594 -214,63 -858,539 -1079,712l-1234 1190c-94,106 -181,226 -273,344 -648,835 -1253,2001 -1541,3285 -591,2634 40,5210 1655,7271 48,62 98,114 130,180l37 -39c3,-3 8,-8 11,-13l274 -444c348,-508 700,-853 1189,-1235 473,-370 1490,-881 2281,-951z"/>
  <path class="fil2" d="M14509 13010c77,71 380,62 605,444 153,260 112,602 112,936 0,325 34,674 -119,928 -115,190 -323,366 -613,411 -79,432 -124,714 -283,1095 -137,326 -307,612 -488,868 -287,405 -1094,1128 -1499,1224l1 1335 706 8c84,8 165,16 244,24l228 49c236,-24 1014,270 1213,359 951,425 1769,1155 2301,2033 31,51 49,85 75,130l91 130 505 -688c163,-232 302,-476 453,-738 963,-1674 1281,-3986 853,-5907 -309,-1390 -949,-2683 -1738,-3622l-560 -630 -538 -490c-185,-171 -942,-729 -1161,-822 2,123 49,261 70,393 100,644 -11,2143 -458,2530z"/>
  <path class="fil3" d="M6264 10003c-152,486 -223,1054 -198,1594 18,412 151,1168 347,1458 55,64 52,100 167,100 129,-146 43,-324 58,-553 36,-529 182,-1200 373,-1663 168,-409 902,-1382 1198,-1499 352,514 1584,787 2191,800 506,11 925,7 1381,-119 331,-91 860,-295 1020,-498 51,49 69,166 256,384 301,348 407,378 642,633 61,66 94,91 143,164 255,374 397,1265 492,1748 37,188 53,432 175,458 447,-387 558,-1886 458,-2530 -21,-132 -68,-270 -70,-393 -45,-77 -90,-262 -134,-368 -259,-625 -569,-814 -630,-943 633,-446 517,-2367 -842,-2012 -390,102 -753,422 -1491,329 -518,-66 -978,-265 -1504,-343 -1391,-205 -2497,516 -3009,1508 -80,153 -74,172 -82,361 -8,172 -106,172 -228,253 -326,215 -671,775 -713,1131z"/>
  <path class="fil1" d="M8780 20251c-140,-18 -571,-31 -680,12 92,-3 8,96 101,393 422,1338 3363,1716 4476,365 164,-200 252,-426 254,-762l-706 -8c-66,-78 -16,-528 -36,-743 -925,492 -2449,491 -3373,0l-3 572c1,84 5,126 -33,171z"/>
  <path class="fil4" d="M7714 20303c-137,1810 2906,2689 4762,1544 474,-292 885,-798 892,-1378 1,-103 -24,-96 35,-137l-228 -49c-79,-8 -160,-16 -244,-24 -2,336 -90,562 -254,762 -1113,1351 -4054,973 -4476,-365 -93,-297 -9,-396 -101,-393l-386 40z"/>
  <path class="fil5" d="M8780 20418c38,-51 34,-98 33,-192l3 -645c924,554 2448,555 3373,0 20,243 -30,749 36,837l-1 -1503c-366,276 -1221,400 -1721,400 -500,0 -1356,-124 -1721,-400l-2 1503z"/>
  <path class="fil3" d="M9602 17530c326,-363 828,-147 901,-147 82,0 560,-217 901,146 250,-173 696,-989 270,-1003l-47 73c-5,116 -73,189 -145,229 -151,84 -805,47 -1000,47 -507,0 -1034,114 -1047,-349 -140,1 -274,-1 -282,143 -4,77 56,274 82,344 77,204 240,436 367,517z"/>
  <path class="fil5" d="M11369 15300l-1729 -6c36,770 1486,742 1698,173 24,-65 24,-96 31,-167z"/>
  <path class="fil6" d="M7321 13057c73,-21 109,-69 204,-105 78,-29 163,-56 252,-76 367,-84 747,-149 1124,-163 138,-5 514,36 588,6 -28,-238 -802,-474 -1235,-394 -420,78 -924,325 -933,732z"/>
  <path class="fil6" d="M11581 12701c54,67 57,30 224,15 426,-39 1056,58 1470,154 318,74 287,105 481,189 -39,-573 -926,-889 -1663,-674 -194,56 -456,193 -512,316z"/>
  <path class="fil7" d="M9602 17530l166 141c64,41 133,75 204,106 329,141 707,141 1046,5 97,-39 271,-132 347,-208 30,-30 18,-17 39,-45 -341,-363 -819,-146 -901,-146 -73,0 -575,-216 -901,147z"/>
  <path class="fil8" d="M11627 16599l3 -73 -2195 0c13,463 540,349 1047,349 195,0 849,37 1000,-47 72,-40 140,-113 145,-229z"/>
  <path class="fil6" d="M11799 14143c97,9 266,-130 399,-174 330,-107 683,-78 977,110 51,32 136,123 175,56 110,-190 -677,-880 -1327,-360 -84,67 -236,216 -224,368z"/>
  <path class="fil6" d="M7651 14142c156,18 352,-296 941,-223 424,52 548,320 609,216 68,-116 -311,-625 -906,-536 -303,46 -666,295 -644,543z"/>
 </g>
</svg>
